# xmcd
#
# Track frame offsets:
#	150
#	14885
#	20345
#	30278
#	39783
#	45520
#	54843
#	63918
#	72445
#	80693
#	91095
#	104550
#	111718
#	122215
#	127303
#	134368
#	142083
#	148565
#
# Disc length: 2105 seconds
#
# Revision: 1
# Processed by: cddbd v1.5.2PL0 Copyright (c) Steve Scherf et al.
# Submitted via: EasyCDDAExtractor 16.0.9.1
#
DISCID=07083712
DTITLE=Eric Weissberg y Steve Mandell - CI-037 Dueling Banjos from the Origina
DTITLE=l Soundtrack: Deliverance
DYEAR=1900
DGENRE=
TTITLE0=Dueling Banjos
TTITLE1=Little Maggie
TTITLE2=Shuckin` the Corn
TTITLE3=Pony Express
TTITLE4=Old Joe Clark
TTITLE5=Eight More Miles to Louisville
TTITLE6=Farewell Blues
TTITLE7=Earl`s Breakdown
TTITLE8=End of a Dream
TTITLE9=Buffalo Gals
TTITLE10=Reuben`s Train
TTITLE11=Riding the Waves
TTITLE12=Fire on the Mountain
TTITLE13=Eighth of January
TTITLE14=Bugle Call Rag
TTITLE15=Hard Ain`t It Hard
TTITLE16=Mountain Dew
TTITLE17=Rawhide
EXTD=
EXTT0=
EXTT1=
EXTT2=
EXTT3=
EXTT4=
EXTT5=
EXTT6=
EXTT7=
EXTT8=
EXTT9=
EXTT10=
EXTT11=
EXTT12=
EXTT13=
EXTT14=
EXTT15=
EXTT16=
EXTT17=
PLAYORDER=
